<svg xmlns="http://www.w3.org/2000/svg" width="32px" height="32px"  viewBox="0 0 24 24"><g>
                <path d="M18.437,20.937H5.563c-1.379,0-2.5-1.122-2.5-2.5V5.563c0-1.378,1.121-2.5,2.5-2.5h12.874
                    c1.379,0,2.5,1.122,2.5,2.5v12.873C20.937,19.815,19.816,20.937,18.437,20.937z M5.563,4.063c-0.827,0-1.5,0.673-1.5,1.5v12.873
                    c0,0.827,0.673,1.5,1.5,1.5h12.874c0.827,0,1.5-0.673,1.5-1.5V5.563c0-0.827-0.673-1.5-1.5-1.5H5.563z"/>
                <path d="M6.546,8.283L6.546,8.283c-0.135,0-0.256-0.057-0.354-0.146c-0.098-0.09-0.141-0.224-0.146-0.354
                    C6.04,7.658,6.105,7.516,6.192,7.429c0.091-0.091,0.225-0.146,0.354-0.146h1.006c0.135,0,0.256,0.057,0.354,0.146
                    c0.098,0.09,0.141,0.224,0.146,0.354c0.006,0.125-0.06,0.267-0.146,0.354C7.814,8.227,7.68,8.283,7.551,8.283H6.546z"/>
                <path d="M6.546,12.5L6.546,12.5c-0.135,0-0.256-0.057-0.354-0.146C6.094,12.263,6.052,12.129,6.046,12
                    c-0.006-0.125,0.06-0.267,0.146-0.354C6.283,11.556,6.418,11.5,6.546,11.5h1.006c0.135,0,0.256,0.057,0.354,0.146
                    c0.098,0.09,0.141,0.224,0.146,0.354c0.006,0.125-0.06,0.267-0.146,0.354C7.814,12.444,7.68,12.5,7.551,12.5H6.546z"/>
                <path d="M6.546,16.72L6.546,16.72c-0.135,0-0.256-0.057-0.354-0.146c-0.098-0.09-0.141-0.224-0.146-0.354
                    c-0.006-0.125,0.06-0.267,0.146-0.354c0.091-0.091,0.225-0.146,0.354-0.146h1.006c0.135,0,0.256,0.057,0.354,0.146
                    c0.098,0.09,0.141,0.224,0.146,0.354c0.006,0.125-0.06,0.267-0.146,0.354C7.814,16.664,7.68,16.72,7.551,16.72H6.546z"/>
                <path d="M10.555,8.281L10.555,8.281c-0.645,0-0.643-1,0-1h6.895c0.645,0,0.643,1,0,1H10.555z"/>
                <path d="M10.555,12.5L10.555,12.5c-0.645,0-0.643-1,0-1h6.895c0.645,0,0.643,1,0,1H10.555z"/>
                <path d="M10.555,16.718L10.555,16.718c-0.645,0-0.643-1,0-1h6.895c0.645,0,0.643,1,0,1H10.555z"/>
            </g></svg>